<svg width="148" height="20" viewBox="0 0 148 20" fill="none" xmlns="http://www.w3.org/2000/svg">
<path d="M2.63991 8.4375C2.63991 6.53409 3.8544 5.45455 5.50923 5.45455C7.08594 5.45455 8.03764 6.44886 8.03764 8.18182V15H9.71378V8.06818C9.71378 5.26278 8.2223 3.94886 5.99219 3.94886C4.27344 3.94886 3.29332 4.66619 2.78196 5.79545H2.63991V0.454545H0.963778V15H2.63991V8.4375ZM17.354 15.2273C19.57 15.2273 21.1893 14.1193 21.7006 12.4716L20.0813 12.017C19.6552 13.1534 18.668 13.7216 17.354 13.7216C15.3867 13.7216 14.0302 12.4503 13.9521 10.1136H21.8711V9.40341C21.8711 5.34091 19.4563 3.94886 17.1836 3.94886C14.229 3.94886 12.2688 6.27841 12.2688 9.63068C12.2688 12.983 14.2006 15.2273 17.354 15.2273ZM13.9521 8.66477C14.0657 6.96733 15.266 5.45455 17.1836 5.45455C19.0018 5.45455 20.1665 6.81818 20.1665 8.66477H13.9521ZM26.0969 0.454545H24.4208V15H26.0969V0.454545ZM30.843 0.454545H29.1669V15H30.843V0.454545ZM38.3448 15.2273C41.2994 15.2273 43.288 12.983 43.288 9.60227C43.288 6.19318 41.2994 3.94886 38.3448 3.94886C35.3903 3.94886 33.4016 6.19318 33.4016 9.60227C33.4016 12.983 35.3903 15.2273 38.3448 15.2273ZM38.3448 13.7216C36.1005 13.7216 35.0778 11.7898 35.0778 9.60227C35.0778 7.41477 36.1005 5.45455 38.3448 5.45455C40.5891 5.45455 41.6119 7.41477 41.6119 9.60227C41.6119 11.7898 40.5891 13.7216 38.3448 13.7216ZM54.2273 18.8352C55.6761 18.8352 57.5227 18.4091 58.4034 18.0398L58.0057 16.733C57.4943 16.9034 55.8466 17.4716 54.2841 17.4716C49.4261 17.4716 46.8409 14.7443 46.8409 9.91477C46.8409 5.17045 49.483 2.32955 53.9432 2.32955C58.4602 2.32955 60.5909 5.51136 60.5909 8.69318C60.5909 11.9318 60.25 13.3807 58.8011 13.3807C57.9489 13.3807 57.4943 12.6705 57.4943 11.875V5.45455H55.9886V6.25H55.9034C55.7045 5.625 54.5966 5.08523 53.1761 5.22727C51.0455 5.45455 49.4261 7.21591 49.4261 9.77273C49.4261 12.4716 50.7045 14.5455 53.1761 14.6307C54.7955 14.6875 55.6477 13.892 55.9886 13.0682H56.0739C56.2443 14.2898 57.7784 14.7159 58.7727 14.7159C61.7841 14.7159 62.0682 11.4773 62.0682 8.72159C62.0682 4.82955 59.3409 0.994318 54.0284 0.994318C48.5455 0.994318 45.2784 4.31818 45.2784 9.85795C45.2784 15.5966 48.4318 18.8352 54.2273 18.8352ZM53.4034 13.1818C51.5568 13.1818 50.9034 11.5057 50.9034 9.6875C50.9034 8.03977 51.8409 6.61932 53.4602 6.61932C55.1648 6.61932 56.0739 7.30114 56.0739 9.6875C56.0739 12.0455 55.3068 13.1818 53.4034 13.1818ZM68.6964 15.2273C70.7987 15.2273 71.5089 13.9205 71.8782 13.3239H72.0771V15H73.6964V0.454545H72.0202V5.82386H71.8782C71.5089 5.25568 70.8555 3.94886 68.7248 3.94886C65.9691 3.94886 64.0657 6.13636 64.0657 9.57386C64.0657 13.0398 65.9691 15.2273 68.6964 15.2273ZM68.9237 13.7216C66.8214 13.7216 65.7418 11.875 65.7418 9.54545C65.7418 7.24432 66.793 5.45455 68.9237 5.45455C70.9691 5.45455 72.0487 7.10227 72.0487 9.54545C72.0487 12.017 70.9407 13.7216 68.9237 13.7216ZM79.4705 15H81.1183L83.5046 6.61932H83.6751L86.0614 15H87.7092L91.033 4.09091H89.2717L86.9137 12.4148H86.8001L84.4989 4.09091H82.7092L80.3796 12.4432H80.266L77.908 4.09091H76.1467L79.4705 15ZM97.4517 15.2273C99.6676 15.2273 101.287 14.1193 101.798 12.4716L100.179 12.017C99.7528 13.1534 98.7656 13.7216 97.4517 13.7216C95.4844 13.7216 94.1278 12.4503 94.0497 10.1136H101.969V9.40341C101.969 5.34091 99.554 3.94886 97.2812 3.94886C94.3267 3.94886 92.3665 6.27841 92.3665 9.63068C92.3665 12.983 94.2983 15.2273 97.4517 15.2273ZM94.0497 8.66477C94.1634 6.96733 95.3636 5.45455 97.2812 5.45455C99.0994 5.45455 100.264 6.81818 100.264 8.66477H94.0497ZM109.092 15.2273C111.308 15.2273 112.928 14.1193 113.439 12.4716L111.82 12.017C111.393 13.1534 110.406 13.7216 109.092 13.7216C107.125 13.7216 105.768 12.4503 105.69 10.1136H113.609V9.40341C113.609 5.34091 111.195 3.94886 108.922 3.94886C105.967 3.94886 104.007 6.27841 104.007 9.63068C104.007 12.983 105.939 15.2273 109.092 15.2273ZM105.69 8.66477C105.804 6.96733 107.004 5.45455 108.922 5.45455C110.74 5.45455 111.905 6.81818 111.905 8.66477H105.69ZM116.159 19.0909H117.835V13.3239H117.977C118.347 13.9205 119.057 15.2273 121.159 15.2273C123.886 15.2273 125.79 13.0398 125.79 9.57386C125.79 6.13636 123.886 3.94886 121.131 3.94886C119 3.94886 118.347 5.25568 117.977 5.82386H117.778V4.09091H116.159V19.0909ZM117.807 9.54545C117.807 7.10227 118.886 5.45455 120.932 5.45455C123.062 5.45455 124.114 7.24432 124.114 9.54545C124.114 11.875 123.034 13.7216 120.932 13.7216C118.915 13.7216 117.807 12.017 117.807 9.54545ZM129.568 15.1136C130.271 15.1136 130.847 14.5384 130.847 13.8352C130.847 13.1321 130.271 12.5568 129.568 12.5568C128.865 12.5568 128.29 13.1321 128.29 13.8352C128.29 14.5384 128.865 15.1136 129.568 15.1136ZM133.854 15H135.531V4.09091H133.854V15ZM134.707 2.27273C135.36 2.27273 135.9 1.76136 135.9 1.13636C135.9 0.511364 135.36 0 134.707 0C134.053 0 133.513 0.511364 133.513 1.13636C133.513 1.76136 134.053 2.27273 134.707 2.27273ZM143.032 15.2273C145.987 15.2273 147.975 12.983 147.975 9.60227C147.975 6.19318 145.987 3.94886 143.032 3.94886C140.078 3.94886 138.089 6.19318 138.089 9.60227C138.089 12.983 140.078 15.2273 143.032 15.2273ZM143.032 13.7216C140.788 13.7216 139.765 11.7898 139.765 9.60227C139.765 7.41477 140.788 5.45455 143.032 5.45455C145.277 5.45455 146.299 7.41477 146.299 9.60227C146.299 11.7898 145.277 13.7216 143.032 13.7216Z" fill="white"/>
</svg>
